<svg xmlns="http://www.w3.org/2000/svg" xmlns:xlink="http://www.w3.org/1999/xlink" width="446" zoomAndPan="magnify" viewBox="0 0 334.5 348.749994" height="465" preserveAspectRatio="xMidYMid meet" version="1.0"><defs><clipPath id="id1"><path d="M 91.242188 111.5 L 242.71875 111.5 L 242.71875 262.988281 L 91.242188 262.988281 Z M 91.242188 111.5 " clip-rule="nonzero"/></clipPath><clipPath id="id2"><path d="M 75.265625 104.375 L 213.265625 104.375 L 213.265625 206.375 L 75.265625 206.375 Z M 75.265625 104.375 " clip-rule="nonzero"/></clipPath><clipPath id="id3"><path d="M 117.273438 168.683594 L 258.777344 168.683594 L 258.777344 273.402344 L 117.273438 273.402344 Z M 117.273438 168.683594 " clip-rule="nonzero"/></clipPath><clipPath id="id4"><path d="M 225.257812 225.039062 L 245.507812 225.039062 L 245.507812 266.289062 L 225.257812 266.289062 Z M 225.257812 225.039062 " clip-rule="nonzero"/></clipPath><clipPath id="id5"><path d="M 161.019531 98 L 197 98 L 197 122.667969 L 161.019531 122.667969 Z M 161.019531 98 " clip-rule="nonzero"/></clipPath><clipPath id="id6"><path d="M 145.101562 75.433594 L 154.851562 75.433594 L 154.851562 123.433594 L 145.101562 123.433594 Z M 145.101562 75.433594 " clip-rule="nonzero"/></clipPath><clipPath id="id7"><path d="M 199.542969 227.660156 L 224.292969 227.660156 L 224.292969 263.660156 L 199.542969 263.660156 Z M 199.542969 227.660156 " clip-rule="nonzero"/></clipPath></defs><g clip-path="url(#id1)"><path fill="#3884b8" d="M 166.980469 111.496094 C 208.804688 111.496094 242.71875 145.40625 242.71875 187.226562 C 242.71875 229.058594 208.804688 262.988281 166.980469 262.988281 C 125.148438 262.988281 91.242188 229.058594 91.242188 187.226562 C 91.242188 145.40625 125.148438 111.496094 166.980469 111.496094 " fill-opacity="1" fill-rule="evenodd"/></g><path fill="#1e2836" d="M 110.96875 143.902344 C 110.972656 143.929688 110.527344 144.308594 109.574219 144.734375 C 108.632812 145.214844 108.664062 145.492188 108.824219 145.449219 C 109.003906 145.398438 108.941406 145.703125 109.113281 145.910156 C 109.324219 146.058594 109.554688 145.933594 109.710938 146.058594 C 109.929688 146.125 110.140625 145.757812 110.515625 145.609375 C 110.832031 145.480469 110.371094 146.003906 110.222656 146.335938 C 110.011719 146.722656 110.078125 146.828125 110.289062 146.902344 C 110.503906 146.953125 110.4375 146.734375 110.695312 146.414062 C 110.992188 146.113281 110.90625 145.78125 111.066406 145.398438 C 111.207031 144.984375 111.140625 145.882812 111.566406 145.757812 C 112.035156 145.589844 111.984375 145.46875 112.320312 144.941406 C 112.648438 144.417969 113.074219 144.386719 113.441406 144.25 C 113.824219 144.097656 113.742188 143.875 113.574219 143.652344 C 113.414062 143.421875 113.160156 144.113281 112.515625 144.125 C 111.894531 144.183594 112.613281 143.410156 112.71875 143.046875 C 112.816406 142.675781 113.152344 142.675781 113.859375 142.097656 C 114.679688 141.417969 113.929688 141.789062 113.304688 142 C 112.71875 142.148438 112.398438 142.527344 112.082031 142.910156 C 111.816406 143.230469 110.96875 143.902344 110.96875 143.902344 Z M 103.765625 149.261719 C 103.765625 149.261719 103.113281 149.566406 102.90625 149.882812 C 102.695312 150.1875 102.269531 150.535156 102.269531 150.632812 C 102.230469 150.769531 102.28125 150.894531 102.515625 150.769531 C 102.75 150.644531 102.949219 150.324219 103.214844 150.21875 C 103.425781 150.175781 103.480469 149.613281 103.726562 149.496094 C 103.953125 149.390625 104.105469 149.113281 104.335938 149.015625 C 104.542969 148.960938 104.820312 148.863281 105.078125 148.683594 C 105.308594 148.570312 105.503906 148.4375 105.625 148.058594 C 105.695312 147.785156 106.019531 147.222656 105.644531 147.492188 C 105.230469 147.824219 105.152344 147.699219 104.964844 147.851562 C 104.757812 148.046875 104.613281 148.394531 104.398438 148.613281 C 104.179688 148.820312 104.179688 148.921875 103.765625 149.261719 Z M 103.9375 146.84375 C 103.9375 146.84375 103.523438 147.039062 103.328125 147.273438 C 103.113281 147.578125 102.785156 147.824219 102.539062 148.277344 C 102.292969 148.742188 102.066406 148.972656 101.933594 149.402344 C 101.816406 149.855469 101.609375 150.273438 101.753906 150.164062 C 101.902344 150.082031 102.117188 149.691406 102.515625 149.125 C 102.90625 148.585938 102.921875 148.507812 103.183594 148.046875 C 103.480469 147.535156 103.628906 147.359375 103.734375 147.246094 C 103.796875 147.207031 104.054688 146.574219 103.972656 146.871094 C 103.890625 147.175781 103.75 147.796875 103.523438 148.175781 C 103.304688 148.570312 103.355469 148.78125 103.453125 148.742188 C 103.554688 148.710938 103.734375 148.660156 103.984375 148.199219 C 104.199219 147.796875 104.28125 147.492188 104.511719 147.371094 C 104.738281 147.273438 104.386719 147.222656 104.941406 147.039062 C 105.449219 146.941406 105.554688 146.734375 105.53125 146.542969 C 105.503906 146.347656 105.628906 146.085938 105.324219 146.320312 C 105.015625 146.574219 104.835938 146.605469 104.675781 146.695312 C 104.558594 146.722656 104.492188 146.574219 104.324219 146.667969 C 104.164062 146.734375 103.890625 146.984375 104.105469 146.679688 C 104.316406 146.378906 104.367188 146.320312 104.539062 146.085938 C 104.699219 145.835938 104.738281 145.933594 105.148438 145.492188 C 105.601562 144.984375 105.65625 145.121094 105.710938 144.722656 C 105.773438 144.308594 105.5625 144.515625 105.449219 144.621094 C 105.347656 144.734375 104.847656 145.023438 104.660156 145.34375 C 104.472656 145.675781 104.230469 145.976562 104.199219 146.226562 C 104.179688 146.472656 104.011719 146.722656 104.011719 146.722656 Z M 93.742188 167.640625 C 93.753906 167.640625 93.777344 167.609375 93.804688 167.609375 C 94.039062 167.597656 94.128906 167.695312 93.96875 168.339844 C 93.816406 168.921875 93.859375 169.03125 93.546875 169.574219 C 93.226562 170.195312 93.011719 170.929688 92.929688 171.6875 C 92.855469 172.445312 93.011719 171.703125 93.292969 171.839844 C 93.597656 171.976562 93.382812 172.308594 93.46875 172.792969 C 93.539062 173.347656 93.371094 173.550781 93.210938 174.507812 C 93.058594 175.386719 92.855469 175.59375 92.839844 176.257812 C 92.839844 176.878906 93.136719 176.925781 93.28125 177.464844 C 93.433594 177.929688 93.992188 176.4375 94.199219 176.90625 C 94.414062 177.375 94.101562 178.164062 94.578125 177.476562 C 95.089844 176.742188 95.503906 175.316406 95.90625 175.167969 C 96.324219 175.015625 96.4375 174.667969 96.410156 175.457031 C 96.355469 176.191406 96.171875 176.4375 96.074219 177.007812 C 95.96875 177.652344 95.878906 178.152344 95.953125 178.234375 C 96.042969 178.25 96.160156 178.113281 96.152344 177.753906 C 96.140625 177.375 96.140625 177.226562 96.265625 176.617188 C 96.386719 176.050781 96.6875 176.007812 97.070312 175.640625 C 97.464844 175.335938 97.335938 175.183594 97.628906 175.378906 C 97.960938 175.566406 97.605469 176.074219 97.960938 176.269531 C 98.300781 176.535156 99.027344 176.148438 99.515625 176.386719 C 100.027344 176.511719 101.023438 178.617188 101.777344 180.308594 C 102.578125 182.089844 104.945312 182.890625 105.65625 183.609375 C 106.382812 184.4375 107.109375 185.128906 107.804688 186.039062 C 108.5 187.050781 111.210938 192.671875 112.1875 193.070312 C 113.179688 193.40625 113.113281 192.960938 114.078125 195.019531 C 115.054688 197.023438 115.417969 197.0625 115.03125 198.292969 C 114.644531 199.554688 114.351562 200.175781 113.339844 201.996094 C 112.390625 203.824219 112.738281 206.152344 112.675781 206.804688 C 112.617188 207.371094 112.871094 208.597656 112.265625 209.875 C 111.683594 211.117188 110.851562 210.328125 110.355469 210.683594 C 109.828125 210.976562 108.871094 213.339844 108.292969 215.398438 C 107.828125 217.402344 108.128906 218.851562 107.226562 219.347656 C 106.359375 219.828125 105.574219 219.277344 106.007812 219.929688 C 106.492188 220.621094 106.59375 220.078125 107.097656 220.824219 C 107.652344 221.625 107.609375 221.574219 107.328125 221.902344 C 107.050781 222.222656 107.125 223.257812 106.644531 223.199219 C 106.203125 223.214844 105.324219 222.335938 105.296875 222.855469 C 105.28125 223.371094 105.128906 223.285156 105.554688 223.960938 C 105.980469 224.609375 106.203125 225.328125 106.160156 225.523438 C 106.152344 225.800781 105.839844 225.480469 106.046875 225.9375 C 106.308594 226.476562 106.566406 226.476562 106.496094 226.792969 C 106.4375 227.097656 106.320312 226.902344 106.320312 227.183594 C 106.285156 227.375 106.265625 227.558594 106.609375 228.050781 C 106.949219 228.527344 107.683594 228.730469 107.863281 229.308594 C 108.0625 229.886719 108.421875 231.175781 108.320312 231.257812 C 108.261719 231.394531 108.113281 231.507812 108.566406 231.921875 C 108.984375 232.238281 108.910156 232.191406 109.003906 232.417969 C 109.042969 232.570312 109.046875 232.761719 109.046875 232.761719 C 109.046875 232.761719 109.457031 232.722656 110.007812 233.410156 C 110.578125 234.105469 110.695312 234.171875 110.695312 234.171875 C 110.695312 234.171875 111.148438 234.667969 111.066406 234.75 C 110.96875 234.84375 110.894531 234.714844 110.601562 234.554688 C 110.316406 234.40625 109.375 233.839844 109.160156 233.535156 C 109.003906 233.273438 109.144531 233.257812 109.082031 233.105469 C 109.074219 233.039062 109.027344 232.96875 109.027344 232.96875 C 109.027344 232.96875 108.878906 232.695312 108.734375 232.722656 C 108.585938 232.734375 108.695312 232.929688 108.386719 232.722656 C 108.0625 232.472656 107.871094 232.253906 107.566406 231.835938 C 107.25 231.414062 107.25 231.414062 106.804688 230.800781 C 106.359375 230.191406 105.699219 229.558594 105.53125 229.125 C 105.363281 228.699219 105.101562 228.246094 104.847656 227.859375 C 104.558594 227.445312 103.90625 226.960938 104.003906 226.546875 C 104.109375 226.132812 104.011719 225.746094 103.753906 225.125 C 103.53125 224.570312 102.722656 223.660156 102.304688 222.867188 C 101.902344 222.070312 101.464844 221.28125 101.164062 220.601562 C 100.863281 219.929688 100.394531 219.320312 100.761719 218.988281 C 101.097656 218.558594 99.769531 216.351562 99.769531 216.351562 C 99.769531 216.351562 98.6875 213.28125 98.441406 212.273438 C 98.203125 211.269531 97.917969 209.886719 97.667969 208.28125 C 97.394531 206.609375 97.238281 205.449219 96.695312 203.777344 C 96.152344 202.050781 94.6875 200.394531 94.484375 200.050781 C 94.28125 199.71875 93.617188 197.785156 93.472656 196.460938 C 93.351562 195.101562 93.304688 194.976562 93.171875 194.382812 C 93.046875 193.859375 92.398438 191.734375 92.386719 191.207031 C 92.386719 190.710938 92.605469 189.328125 92.480469 188.871094 C 92.332031 188.363281 92.132812 188.371094 92.332031 187.382812 C 92.546875 186.414062 92.792969 185.738281 93.136719 184.785156 C 93.515625 183.828125 93.539062 183.457031 93.652344 183.164062 C 93.765625 182.808594 93.898438 181.125 93.972656 179.695312 C 94.046875 178.304688 93.871094 177.90625 93.742188 177.890625 C 93.613281 177.800781 93.492188 178.25 93.148438 178.34375 C 92.8125 178.539062 92.660156 178.375 92.527344 177.601562 C 92.425781 176.742188 92.59375 175.472656 92.59375 175.085938 C 92.59375 174.710938 92.691406 174.335938 92.527344 173.921875 C 92.480469 173.773438 92.425781 173.773438 92.378906 173.816406 C 92.753906 171.710938 93.210938 169.667969 93.742188 167.640625 Z M 95.953125 160.660156 C 95.933594 160.730469 95.90625 160.773438 95.894531 160.824219 Z M 118.492188 139.785156 C 118.472656 139.773438 117.1875 140.421875 117.199219 140.433594 C 117.160156 140.492188 116.238281 141.238281 116.011719 141.472656 C 115.761719 141.71875 115.203125 142.050781 115.164062 142.203125 C 115.082031 142.398438 115.28125 142.648438 115.535156 142.511719 C 115.746094 142.425781 116.292969 142 116.273438 142.246094 C 116.328125 142.476562 116.425781 142.839844 116.597656 142.980469 C 116.722656 143.171875 116.742188 143.019531 117.253906 142.757812 C 117.808594 142.441406 117.917969 142.453125 118.167969 141.777344 C 118.421875 141.101562 118.449219 141.40625 118.222656 141.101562 C 117.945312 140.835938 117.773438 140.863281 118.035156 140.558594 C 118.25 140.3125 119.007812 139.632812 118.492188 139.785156 Z M 119.691406 128.9375 C 119.691406 128.9375 118.933594 129.441406 118.539062 129.550781 C 118.152344 129.660156 117.761719 130.019531 117.484375 130.167969 C 117.171875 130.378906 115.886719 131 115.847656 131.273438 C 115.761719 131.640625 115.714844 131.816406 115.988281 131.664062 C 116.273438 131.511719 116.140625 131.707031 116.394531 131.652344 C 116.597656 131.664062 117.160156 131.265625 117.855469 130.710938 C 118.546875 130.128906 119.027344 129.769531 119.472656 129.382812 C 119.914062 128.984375 119.640625 129 119.945312 128.886719 C 120.21875 128.761719 120.175781 128.832031 120.929688 128.457031 C 121.691406 128.085938 121.367188 128.28125 122.023438 127.902344 C 122.707031 127.464844 123.121094 127.039062 122.855469 127.050781 C 122.597656 127.09375 122.546875 127.132812 122 127.394531 C 121.394531 127.714844 120.878906 128.03125 120.652344 128.085938 C 120.351562 128.210938 120.207031 128.375 119.691406 128.9375 Z M 123.671875 127.164062 C 123.828125 126.996094 124.25 126.9375 124.574219 126.878906 C 124.910156 126.855469 124.175781 127.335938 123.925781 127.613281 C 123.667969 127.902344 123.398438 128.144531 123.007812 128.222656 C 122.554688 128.347656 122.222656 128.527344 122.042969 128.542969 C 121.871094 128.554688 122.273438 128.222656 122.527344 127.949219 C 122.832031 127.644531 123.671875 127.164062 123.671875 127.164062 Z M 120.148438 131.757812 C 120.148438 131.757812 119.140625 132.035156 119.566406 132.191406 C 119.992188 132.355469 120.070312 132.214844 120.496094 132.160156 C 120.976562 132.066406 121.082031 132.171875 121.15625 132.601562 C 121.253906 133.042969 121.769531 132.988281 122.152344 132.8125 C 122.546875 132.617188 122.472656 132.421875 122.652344 132.078125 C 122.863281 131.664062 123.042969 131.554688 123.152344 131.816406 C 123.214844 132.101562 123.445312 131.925781 123.890625 131.722656 C 124.410156 131.46875 124.25 130.890625 124.757812 130.863281 C 125.261719 130.847656 125.75 130.683594 126.203125 130.476562 C 126.648438 130.25 126.460938 130.007812 126.617188 129.605469 C 126.824219 129.175781 126.265625 129.246094 126.226562 129.078125 C 126.203125 128.902344 126.128906 128.554688 125.542969 128.832031 C 124.890625 129.164062 125.011719 128.855469 124.957031 128.652344 C 124.890625 128.429688 124.988281 128.210938 125.375 128.015625 C 125.78125 127.824219 126.277344 127.3125 126.007812 127.269531 C 125.722656 127.257812 125.945312 127.3125 125.183594 127.613281 C 124.375 127.972656 124.480469 127.753906 124.582031 127.542969 C 124.648438 127.371094 124.355469 127.464844 124.121094 127.863281 C 123.882812 128.28125 123.421875 128.292969 123.078125 128.554688 C 122.71875 128.832031 122.597656 129.269531 122.71875 129.527344 C 122.832031 129.800781 123.085938 129.894531 122.902344 130.226562 C 122.71875 130.558594 122.589844 130.765625 121.878906 131.136719 C 121.160156 131.511719 120.351562 131.664062 120.148438 131.757812 Z M 128.144531 125.5 C 128.144531 125.5 128.230469 125.519531 128.4375 125.429688 C 128.652344 125.363281 128.308594 125.363281 128.734375 125.074219 C 129.140625 124.796875 128.835938 125.128906 128.878906 125.308594 C 128.910156 125.5 129.066406 125.5 128.835938 125.683594 C 128.613281 125.851562 128.476562 126.152344 128.199219 126.246094 C 127.847656 126.382812 126.722656 126.648438 126.476562 126.429688 C 126.179688 126.246094 126.613281 126.09375 126.804688 125.875 C 127.082031 125.640625 128.144531 125.5 128.144531 125.5 Z M 129.820312 125.058594 C 130 124.921875 129.957031 124.453125 130.695312 124.273438 C 131.507812 124.09375 131.242188 124.207031 131.777344 123.980469 C 132.367188 123.703125 132.875 123.292969 133.425781 123.101562 C 134.074219 122.917969 134.640625 122.78125 135.421875 122.5625 C 136.183594 122.335938 136.570312 122.148438 136.285156 122.550781 C 136.007812 122.960938 135.421875 123.058594 134.664062 123.414062 C 133.945312 123.761719 134.351562 123.609375 133.398438 124.09375 C 132.449219 124.578125 132.183594 124.671875 131.644531 124.898438 C 131.160156 125.046875 130.023438 125.390625 129.820312 125.058594 Z M 137.660156 122.480469 C 137.660156 122.480469 137.46875 122.367188 137.964844 122.101562 C 138.460938 121.828125 138.34375 121.910156 139.226562 121.828125 C 140.0625 121.800781 139.648438 122.058594 140.113281 122.101562 C 140.527344 122.171875 141.523438 121.816406 141.6875 121.691406 C 141.863281 121.578125 142.464844 121.371094 144.019531 121.136719 C 145.550781 120.929688 145.097656 120.902344 146.347656 121.152344 C 147.722656 121.398438 146.894531 121.507812 147.265625 121.539062 C 147.636719 121.550781 147.621094 121.539062 148.226562 121.410156 C 148.757812 121.332031 148.875 121.21875 149.15625 120.953125 C 149.433594 120.695312 149.71875 120.695312 150.011719 120.75 C 150.378906 120.777344 150.128906 120.929688 150.40625 121.152344 C 150.746094 121.359375 150.589844 121.054688 151.507812 121.109375 C 152.421875 121.191406 151.277344 121.59375 150.746094 121.691406 C 150.222656 121.816406 150.160156 121.539062 149.472656 121.839844 C 148.792969 122.171875 148.699219 122.308594 148.332031 122.492188 C 147.960938 122.667969 149.058594 122.847656 149.078125 123.167969 C 149.097656 123.484375 148.894531 123.484375 148.445312 123.527344 C 147.957031 123.554688 148.527344 123.414062 148.460938 123.167969 C 148.382812 122.886719 147.585938 123.058594 147.285156 122.972656 C 147.03125 122.847656 145.484375 123.675781 145.332031 124.050781 C 145.171875 124.414062 145.507812 124.578125 144.820312 124.773438 C 144.117188 124.980469 143.652344 124.519531 143.523438 125.085938 C 143.402344 125.652344 144.105469 125.308594 144.007812 125.792969 C 143.855469 126.304688 143.113281 126.195312 142.25 126.648438 C 141.320312 127.105469 141.167969 127.285156 140.359375 127.371094 C 139.597656 127.4375 138.519531 128.335938 137.414062 128.761719 C 136.378906 129.144531 135.917969 129.144531 134.769531 129.246094 C 133.675781 129.34375 133.945312 129.535156 132.71875 130.199219 C 131.445312 130.890625 131.65625 131.101562 131.1875 131.722656 C 130.660156 132.378906 129.847656 132.328125 129.367188 132.671875 C 128.890625 133.019531 128.835938 132.378906 128.835938 131.691406 C 128.792969 131.042969 129.210938 130.929688 129.585938 130.394531 C 129.957031 129.867188 130.339844 129.191406 130.753906 128.414062 C 131.160156 127.644531 132.121094 127.371094 132.855469 127.117188 C 133.59375 126.878906 133.527344 126.496094 134.199219 126.023438 C 134.835938 125.566406 134.589844 124.980469 135.242188 124.273438 C 135.984375 123.539062 136.285156 123.632812 137.097656 123.238281 C 137.851562 122.875 137.660156 122.480469 137.660156 122.480469 Z M 142.335938 128.335938 C 142.589844 128.25 142.460938 128.457031 142.464844 128.625 C 142.523438 128.777344 142.335938 129.269531 142.773438 129.34375 C 143.195312 129.398438 143.160156 129.144531 143.707031 128.652344 C 144.183594 128.167969 144.144531 128.042969 145.015625 127.902344 C 145.960938 127.738281 145.714844 128.144531 145.8125 128.375 C 145.839844 128.667969 146.1875 128.691406 145.808594 128.886719 C 145.457031 129.078125 145.519531 129.21875 145.410156 129.785156 C 145.316406 130.378906 144.9375 130.242188 144.363281 130.269531 C 143.726562 130.339844 143.535156 130.503906 142.90625 130.601562 C 142.34375 130.683594 142.535156 130.640625 142.171875 130.890625 C 141.808594 131.136719 141.703125 130.890625 141.523438 130.710938 C 141.378906 130.503906 140.933594 130.558594 140.769531 130.074219 C 140.613281 129.605469 140.878906 129.398438 141 129.066406 C 141.117188 128.734375 141.484375 128.761719 141.890625 128.734375 C 142.335938 128.652344 142.191406 128.457031 142.335938 128.335938 Z M 94.878906 166.480469 C 94.960938 166.421875 95.136719 166.328125 95.378906 165.921875 C 95.621094 165.441406 95.71875 164.996094 95.90625 165.203125 C 96.097656 165.511719 96.097656 165.109375 96.152344 165.6875 C 96.191406 166.308594 96.175781 166.226562 96.496094 166.328125 C 96.84375 166.339844 97.007812 166.683594 97.203125 166.820312 C 97.394531 166.960938 97.878906 167.015625 97.429688 167.722656 C 97.019531 168.355469 97.195312 168.699219 96.773438 168.59375 C 96.347656 168.574219 96.042969 168.953125 95.933594 168.691406 C 95.800781 168.503906 95.800781 168.339844 95.90625 167.914062 C 96 167.472656 96.035156 167.722656 95.867188 167.226562 C 95.71875 166.710938 96.085938 166.046875 95.894531 166.0625 C 95.726562 166.019531 95.90625 166.160156 95.539062 166.589844 C 95.171875 167.03125 94.578125 167.417969 94.878906 166.480469 Z M 99.066406 168.160156 C 98.90625 168.050781 98.832031 168.160156 98.773438 167.789062 C 98.742188 167.332031 98.539062 167.058594 98.40625 167.167969 C 98.277344 167.292969 98.113281 167.292969 97.917969 167.78125 C 97.710938 168.316406 97.605469 168.050781 97.578125 168.425781 C 97.546875 168.800781 97.394531 168.976562 97.777344 168.988281 C 98.175781 168.96875 98.277344 168.691406 98.488281 168.660156 C 98.683594 168.660156 98.519531 168.742188 98.839844 168.691406 C 99.164062 168.699219 99.34375 168.8125 99.335938 168.371094 C 99.273438 167.996094 99.171875 168.191406 99.066406 168.160156 Z M 100.6875 167.789062 C 100.648438 167.789062 100.480469 168.109375 100.273438 168.339844 C 100.085938 168.503906 99.851562 168.59375 99.824219 168.953125 C 99.824219 169.226562 99.800781 169.160156 100.019531 169.421875 C 100.261719 169.714844 100.464844 169.542969 100.691406 169.171875 C 100.898438 168.882812 101.09375 168.699219 101.035156 168.339844 C 100.960938 168.042969 101.023438 167.542969 100.6875 167.789062 Z M 186.878906 145.65625 C 186.363281 146.019531 187.125 146.195312 187.539062 146.25 C 187.925781 146.308594 188.117188 146.605469 188.285156 147.371094 C 188.445312 148.121094 188.527344 148.035156 189.183594 148.660156 C 189.832031 149.304688 189.996094 149.613281 190.46875 149.761719 C 190.933594 149.898438 190.726562 149.582031 191.117188 149.304688 C 191.507812 149.027344 191.714844 149.441406 191.722656 149.898438 C 191.761719 150.398438 190.714844 150.339844 190.421875 150.398438 C 190.101562 150.410156 190.847656 151.144531 191.128906 151.5 C 191.375 151.820312 191.46875 151.582031 192.378906 151.710938 C 193.257812 151.835938 192.816406 152.648438 192.058594 152.742188 C 191.304688 152.867188 191.617188 152.925781 191.617188 153.601562 C 191.636719 154.261719 192.28125 154.03125 192.34375 154.625 C 192.398438 155.207031 191.914062 155.054688 191.160156 155.445312 C 190.359375 155.828125 190.292969 155.398438 189.402344 155.273438 C 188.460938 155.148438 188.457031 155.097656 188.207031 154.152344 C 187.933594 153.203125 187.988281 153.644531 187.421875 152.980469 C 186.851562 152.332031 187.359375 152.316406 187.898438 151.863281 C 188.453125 151.40625 187.933594 151.015625 187.386719 150.824219 C 186.824219 150.632812 187.148438 149.957031 185.9375 148.921875 C 184.699219 147.867188 185.964844 147.679688 184.726562 147.175781 C 183.53125 146.695312 183.164062 145.851562 183.554688 145.433594 C 183.929688 145.007812 183.898438 144.332031 185.035156 143.960938 C 186.167969 143.574219 185.957031 143.929688 186.6875 144.25 C 187.359375 144.539062 187.664062 144.34375 188.355469 144.515625 C 189.007812 144.691406 189.175781 145.300781 188.34375 145.285156 C 187.515625 145.269531 187.664062 145.726562 186.878906 145.65625 Z M 192.609375 145.230469 C 193.191406 145.3125 193.136719 145.757812 192.984375 146.085938 C 192.839844 146.40625 193.109375 146.414062 193.597656 146.554688 C 194.046875 146.667969 194.257812 147.125 193.804688 147.371094 C 193.386719 147.632812 193.308594 147.941406 192.785156 147.554688 C 192.304688 147.164062 192.386719 147.371094 191.917969 146.804688 C 191.398438 146.210938 191.644531 146.25 191.707031 145.8125 C 191.761719 145.34375 192.609375 145.230469 192.609375 145.230469 Z M 144.671875 153.355469 C 144.671875 153.355469 142.578125 153.984375 141.523438 155.109375 C 140.523438 156.226562 140.394531 156.640625 139.773438 157.511719 C 139.117188 158.390625 137.371094 158.847656 137.1875 159.207031 C 136.980469 159.597656 135.703125 160.371094 135.703125 160.371094 C 135.703125 160.371094 132.617188 163.152344 132.640625 165.238281 C 132.640625 167.390625 131.222656 168.894531 130.757812 171.453125 C 130.300781 174.050781 129.109375 175.378906 131.1875 177.570312 C 133.339844 179.835938 133.296875 182.820312 137.527344 183.800781 C 141.890625 184.851562 143.992188 185.128906 145.558594 184.394531 C 147.125 183.695312 147.691406 183.152344 149.539062 183.992188 C 151.40625 184.867188 148.777344 186.691406 150.542969 186.773438 C 152.316406 186.867188 153.4375 186.796875 153.199219 188.488281 C 152.949219 190.199219 152.757812 191.539062 151.902344 192.570312 C 151.046875 193.609375 152.3125 194.769531 153.464844 197.1875 C 154.632812 199.605469 155.714844 198.863281 155.121094 202.867188 C 154.550781 206.832031 155.378906 208.253906 154.632812 209.164062 C 153.882812 210.0625 152.550781 209.996094 152.785156 211.347656 C 153.035156 212.65625 154.136719 214.71875 154.730469 216.765625 C 155.316406 218.792969 153.484375 221.449219 154.117188 222.984375 C 154.757812 224.472656 155.136719 224.75 155.949219 226.101562 C 156.761719 227.429688 156.609375 228.144531 155.511719 228.894531 C 154.425781 229.628906 155.84375 232.417969 158.675781 232.679688 C 161.523438 232.929688 161.210938 232.15625 162.65625 231.957031 C 164.128906 231.726562 164.582031 231.835938 165.523438 230.878906 C 166.46875 229.917969 166.753906 229.296875 168.089844 228.398438 C 169.390625 227.480469 168.789062 227.5 170.183594 225.914062 C 171.625 224.28125 170.710938 224.292969 171.101562 223.328125 C 171.476562 222.371094 171.511719 223.851562 173.007812 223.050781 C 174.496094 222.246094 174.613281 222.222656 174.722656 221.78125 C 174.890625 221.308594 174.757812 221.417969 174.898438 220.359375 C 174.996094 219.277344 174.570312 219.085938 174.777344 218.492188 C 174.976562 217.886719 175.070312 217.289062 175.957031 217.011719 C 176.871094 216.722656 177.570312 215.601562 178.050781 215.214844 C 178.527344 214.847656 180.503906 214.15625 180.726562 213.351562 C 180.949219 212.550781 181.949219 208.902344 181.121094 207.726562 C 180.296875 206.539062 179.363281 205.726562 179.636719 204.316406 C 179.914062 202.90625 180.207031 202.050781 180.414062 201.003906 C 180.59375 199.964844 181.328125 197.867188 182.835938 197.121094 C 184.355469 196.402344 187.054688 193.597656 188.515625 192.589844 C 189.996094 191.550781 189.996094 190.582031 190.273438 189.453125 C 190.542969 188.347656 191.464844 186.742188 192.304688 185.625 C 193.136719 184.519531 193.722656 182.078125 193.0625 182.058594 C 192.425781 182.007812 191.398438 182.394531 190.769531 182.585938 C 190.128906 182.769531 189.390625 182.183594 188.238281 183.042969 C 187.074219 183.914062 186.957031 183.390625 186.550781 182.714844 C 186.160156 182.03125 186.167969 181.371094 185.53125 181.316406 C 184.902344 181.261719 185.773438 181.007812 185.476562 180.125 C 185.152344 179.226562 183.792969 178.414062 183.328125 177.996094 C 182.863281 177.546875 182.214844 178.164062 181.9375 176.386719 C 181.660156 174.613281 181.667969 174.015625 181.542969 173.496094 C 181.421875 172.984375 180.355469 172.585938 180.226562 171.414062 C 180.105469 170.277344 179.960938 170.804688 179.476562 169.652344 C 179.023438 168.503906 179.621094 167.996094 179.128906 167.402344 C 178.613281 166.808594 177.761719 166.796875 177.503906 165.410156 C 177.242188 164.003906 176.917969 164.222656 176.558594 162.980469 C 176.183594 161.773438 175.976562 161.878906 176.042969 161.546875 C 176.117188 161.242188 175.777344 160.632812 176.664062 161.175781 C 177.554688 161.710938 176.855469 162.53125 177.582031 162.234375 C 178.320312 161.945312 177.464844 161.242188 178.1875 161.003906 C 178.9375 160.773438 178.75 160.492188 178.871094 161.535156 C 178.996094 162.554688 179.527344 162.980469 179.820312 164.046875 C 180.117188 165.109375 180.386719 165.84375 181.097656 167.488281 C 181.816406 169.160156 180.972656 169.519531 182.175781 170.359375 C 183.378906 171.21875 182.242188 171.136719 182.800781 171.988281 C 183.378906 172.84375 183.546875 173.328125 185.152344 174.851562 C 186.75 176.386719 186.398438 174.945312 186.550781 176.660156 C 186.710938 178.375 186.363281 179.449219 187.511719 179.863281 C 188.644531 180.277344 188.984375 180.101562 191.085938 179.601562 C 193.191406 179.117188 192.503906 179.421875 193.890625 178.304688 C 195.273438 177.1875 195.644531 177.652344 196.988281 176.3125 C 198.300781 174.960938 198.875 174.300781 199.21875 172.957031 C 199.574219 171.65625 199.972656 171.3125 199.648438 170.910156 C 199.324219 170.496094 198.777344 170.792969 198.363281 170.207031 C 197.929688 169.601562 197.761719 169.652344 197.433594 169.113281 C 197.117188 168.59375 197.035156 168.988281 197.046875 168.300781 C 197.035156 167.609375 196.929688 166.121094 196.59375 166.960938 C 196.246094 167.816406 196.59375 168.132812 196.058594 168.144531 C 195.519531 168.179688 195.085938 168.382812 194.464844 168.289062 C 193.84375 168.21875 194.117188 167.402344 193.453125 167.113281 C 192.816406 166.867188 192.476562 168.09375 192.257812 167.460938 C 192.058594 166.847656 192.386719 167.640625 191.949219 166.421875 C 191.488281 165.203125 192.101562 166.03125 191.007812 164.917969 C 189.890625 163.796875 189.175781 163.890625 189.207031 162.875 C 189.242188 161.867188 188.679688 161.046875 189.667969 160.921875 C 190.65625 160.800781 190.140625 160.492188 190.953125 161.851562 C 191.792969 163.203125 192.699219 162.957031 193.597656 164.257812 C 194.480469 165.539062 194.554688 165.621094 195.308594 165.730469 C 196.074219 165.855469 196.632812 165.660156 197.191406 165.59375 C 197.714844 165.496094 196.8125 165.996094 198.097656 166.933594 C 199.390625 167.902344 200.242188 167.582031 201.171875 167.65625 C 202.128906 167.761719 203.246094 167.75 204.5625 168.191406 C 205.886719 168.605469 205.917969 170.460938 206.40625 171.023438 C 206.871094 171.550781 207.269531 171.78125 207.800781 171.671875 C 208.335938 171.5625 208.160156 171.910156 207.828125 172.210938 C 207.511719 172.542969 207.476562 173.550781 208.277344 173.550781 C 209.089844 173.621094 208.6875 173.828125 209.164062 173.316406 C 209.613281 172.792969 209.671875 172.417969 209.980469 172.585938 C 210.285156 172.761719 209.488281 173.636719 209.90625 174.003906 C 210.304688 174.351562 210.359375 173.550781 210.582031 174.132812 C 210.839844 174.765625 210.789062 174.40625 210.71875 175.316406 C 210.644531 176.164062 210.433594 176.4375 210.714844 176.511719 C 210.996094 176.535156 211.046875 176.9375 211.046875 176.9375 C 211.046875 176.9375 211.730469 176.824219 211.480469 177.210938 C 211.214844 177.585938 211.152344 178.015625 211.699219 179.464844 C 212.21875 180.945312 212.261719 181.664062 212.574219 181.839844 C 212.871094 182.046875 212.777344 182.875 212.777344 182.875 C 212.777344 182.875 213.738281 185.863281 214.054688 186.511719 C 214.378906 187.226562 214.726562 187.050781 214.839844 187.695312 C 214.96875 188.371094 215.175781 188.664062 215.332031 188.664062 C 215.480469 188.722656 216.054688 188.804688 216.414062 187.433594 C 216.746094 186.109375 216.621094 184.992188 217 184.5625 C 217.367188 184.160156 217.542969 184.34375 217.496094 183.707031 C 217.460938 183.042969 217.460938 183.152344 217.070312 182.492188 C 216.675781 181.816406 216.878906 181.289062 217.316406 181.050781 C 217.757812 180.789062 218.621094 180 218.980469 179.808594 C 219.347656 179.601562 219.628906 178.648438 220.296875 177.847656 C 220.957031 177.074219 221.121094 176.824219 221.117188 176.257812 C 221.105469 175.773438 221.414062 174.867188 221.863281 175.71875 C 222.34375 176.660156 222.074219 176.148438 222.742188 175.902344 C 223.390625 175.648438 223.230469 174.765625 223.742188 175.351562 C 224.265625 176.027344 223.644531 176.535156 224.28125 176.59375 C 224.898438 176.683594 225.003906 177.363281 225.640625 177.800781 C 226.277344 178.25 226.367188 178.164062 226.265625 178.898438 C 226.160156 179.683594 226.03125 180.25 226.097656 180.886719 C 226.164062 181.59375 226.375 181.867188 226.761719 181.839844 C 227.132812 181.816406 227.023438 181.457031 227.433594 180.945312 C 227.839844 180.472656 227.890625 179.617188 228.082031 180.070312 C 228.289062 180.550781 228.601562 180.816406 228.496094 182.183594 C 228.375 183.554688 228.867188 183.457031 228.796875 184.328125 C 228.738281 185.203125 229.265625 184.921875 229.234375 185.308594 C 229.191406 185.679688 229.054688 188.511719 228.96875 188.9375 C 228.886719 189.300781 228.148438 189.660156 228.5 190.28125 C 228.835938 190.902344 228.882812 190.296875 229.269531 191.511719 C 229.660156 192.535156 230.078125 193.847656 230.273438 194.316406 C 230.464844 194.785156 231.332031 197.050781 231.898438 197.535156 C 232.46875 198.046875 232.699219 197.339844 232.757812 196.953125 C 232.804688 196.554688 232.484375 196.773438 232.542969 196.113281 C 232.605469 195.460938 232.925781 195.292969 232.574219 194.589844 C 232.230469 193.816406 231.898438 193.667969 231.488281 192.90625 C 231.070312 192.214844 231.214844 191.90625 230.699219 191.425781 C 230.171875 190.941406 229.859375 191.113281 229.707031 190.597656 C 229.566406 190.03125 229.699219 187.476562 230.125 186.796875 C 230.558594 186.09375 230.941406 185.324219 231.054688 185.96875 C 231.15625 186.535156 230.769531 186.925781 231.261719 186.980469 C 231.773438 187.050781 231.773438 186.730469 232.230469 187.320312 C 232.6875 187.972656 232.894531 187.921875 232.992188 188.636719 C 233.09375 189.300781 232.675781 189.410156 233.03125 189.753906 C 233.371094 190.101562 233.414062 189.714844 233.894531 189.054688 C 234.355469 188.347656 234.652344 188.542969 234.652344 187.269531 C 234.636719 185.929688 234.757812 185.117188 234.003906 184.136719 C 233.210938 183.179688 232.574219 182.03125 232.515625 181.125 C 232.453125 180.207031 232.261719 180.433594 232.449219 179.808594 C 232.605469 179.191406 232.453125 178.953125 232.761719 178.261719 C 233.082031 177.53125 234.003906 177.476562 233.925781 178.234375 C 233.851562 178.996094 233.941406 178.914062 233.640625 179.550781 C 233.324219 180.183594 233.261719 180.457031 233.550781 180.816406 C 233.851562 181.136719 233.941406 181.273438 234.058594 180.515625 C 234.179688 179.835938 234.449219 180.277344 234.5 179.65625 C 234.539062 179.050781 234.148438 178.8125 234.417969 178.375 C 234.707031 177.929688 234.539062 177.683594 235.089844 177.753906 C 235.636719 177.890625 235.738281 178.085938 235.980469 177.636719 C 236.230469 177.1875 236.277344 177.257812 236.660156 176.753906 C 237.03125 176.285156 236.988281 175.804688 237.015625 175.425781 C 237.070312 175.140625 237.058594 173.117188 237.078125 172.902344 C 237.109375 172.609375 237.476562 171.792969 237.070312 171.382812 C 236.652344 170.886719 236.820312 171.21875 236.484375 170.773438 C 236.140625 170.277344 236.304688 170.25 236.453125 169.90625 C 236.613281 169.574219 236.484375 169.390625 236.25 169.019531 C 235.980469 168.574219 235.875 167.558594 235.335938 167.28125 C 234.773438 166.988281 234.636719 167.261719 234.238281 166.574219 C 233.828125 165.894531 233.792969 166.046875 233.621094 165.523438 C 233.460938 165.050781 233.71875 164.984375 233.925781 164.546875 C 234.09375 164.046875 233.964844 163.867188 233.585938 163.546875 C 233.210938 163.300781 232.664062 163.289062 232.484375 162.832031 C 232.273438 162.316406 231.367188 160.371094 232.105469 161.046875 C 232.835938 161.738281 232.40625 161.738281 233.085938 162.085938 C 233.738281 162.371094 234.097656 162.167969 234.152344 162.679688 C 234.222656 163.246094 233.964844 163.039062 234.53125 163.742188 C 235.078125 164.449219 235.050781 163.5 235.503906 164.378906 C 235.925781 165.238281 235.625 165.109375 235.921875 165.539062 C 236.230469 165.964844 236.511719 165.964844 236.527344 166.339844 C 236.566406 166.78125 236.382812 167.125 236.632812 167.359375 C 236.878906 167.511719 236.523438 166.480469 236.832031 166.683594 C 237.125 166.835938 237.269531 166.796875 237.3125 166.480469 C 237.320312 166.109375 237.191406 166.0625 236.925781 165.382812 C 236.667969 164.789062 236.753906 164.902344 236.078125 163.910156 C 235.40625 162.910156 235.050781 162.417969 235.015625 162.125 C 234.996094 161.851562 234.902344 161.710938 234.53125 160.867188 C 234.152344 160.011719 234.277344 159.804688 234.757812 159.765625 C 235.195312 159.667969 235.441406 159.890625 235.035156 158.867188 C 234.625 157.859375 234.707031 158.285156 234.199219 157.316406 C 233.660156 156.351562 233.703125 155.605469 232.894531 154.625 C 232.074219 153.644531 231.449219 153.078125 230.753906 152.054688 C 230.035156 151.046875 230.164062 150.632812 229.191406 149.785156 C 228.148438 148.898438 226.164062 148.40625 225.960938 147.714844 C 225.726562 147.027344 225.914062 146.296875 225.90625 146.035156 C 225.851562 145.726562 225.664062 145.164062 226.421875 145.675781 C 227.1875 146.210938 227.78125 146.40625 228.265625 146.792969 C 228.703125 147.105469 229.351562 147.5625 229.089844 147.136719 C 228.796875 146.695312 228.957031 147.222656 228.480469 146.460938 C 227.972656 145.675781 227.71875 145.398438 227.933594 145.433594 C 228.125 145.480469 228.054688 145.433594 228.601562 145.859375 C 229.132812 146.308594 229.308594 146.003906 229.53125 146.503906 C 229.765625 147.039062 229.707031 147.425781 229.96875 147.964844 C 230.195312 148.417969 230.316406 148.699219 230.972656 149.347656 C 231.617188 149.980469 231.898438 150.519531 232.015625 150.703125 C 232.15625 150.949219 232.261719 150.714844 232.761719 151.460938 C 233.269531 152.207031 233.441406 152.109375 233.710938 152.546875 C 234.019531 153.078125 233.941406 153.019531 234.476562 153.601562 C 234.976562 154.113281 235.167969 154.515625 235.066406 154.070312 C 234.949219 153.628906 234.875 153.574219 234.570312 153.050781 C 234.265625 152.535156 234.355469 152.5 233.648438 151.5 C 232.941406 150.519531 233.039062 150.371094 232.597656 149.855469 C 232.144531 149.347656 232.015625 149.402344 231.742188 149.125 C 231.449219 148.863281 231.5 148.933594 231.070312 148.40625 C 230.648438 147.886719 230.222656 147.632812 230.523438 147.523438 C 230.773438 147.371094 230.910156 147.816406 231.019531 147.492188 C 231.097656 147.175781 230.910156 146.84375 231.007812 146.792969 C 231.140625 146.792969 230.960938 146.460938 230.835938 146.367188 C 230.695312 146.28125 230.695312 146.367188 230.523438 146.210938 C 230.371094 146.035156 230.371094 145.859375 230.019531 145.628906 C 229.730469 145.480469 229.113281 144.882812 228.140625 143.851562 C 227.164062 142.8125 227.363281 142.9375 226.734375 142.398438 C 226.089844 141.859375 225.394531 141.375 224.882812 140.9375 C 224.363281 140.503906 223.167969 139.773438 222.566406 139.25 C 221.992188 138.707031 221.875 138.589844 221.082031 138.128906 C 220.316406 137.757812 219.308594 137.601562 217.449219 136.65625 C 215.507812 135.714844 215.273438 135.355469 213.074219 134.457031 C 210.828125 133.582031 209.019531 133.019531 208.695312 132.769531 C 208.320312 132.476562 207.9375 131.625 207.109375 131.59375 C 206.285156 131.582031 206.800781 132.257812 206.175781 132.328125 C 205.59375 132.449219 204.734375 131.953125 204 131.722656 C 203.324219 131.570312 202.613281 131.195312 202.285156 131 C 201.902344 130.753906 201.285156 129.835938 199.796875 129.5 C 198.230469 129.109375 196.988281 129.238281 196.019531 128.855469 C 195.109375 128.527344 195.84375 128.777344 195.175781 128.25 C 194.554688 127.753906 194.277344 127.257812 193.832031 127.753906 C 193.335938 128.25 194.136719 128.9375 193.507812 128.476562 C 192.886719 128 193.316406 128.125 192.503906 127.421875 C 191.734375 126.75 192.519531 126.878906 190.933594 126.496094 C 189.34375 126.117188 189.625 126.304688 188.453125 125.761719 C 187.265625 125.265625 186.453125 124.601562 185.59375 124.980469 C 184.757812 125.363281 184.582031 125.96875 184.675781 126.289062 C 184.792969 126.621094 185.695312 126.84375 185.378906 127.050781 C 184.992188 127.257812 184.542969 126.785156 184.523438 127.285156 C 184.449219 127.78125 184.875 127.613281 185.28125 127.753906 C 185.695312 127.902344 186.597656 128.28125 186.835938 128.75 C 187.117188 129.238281 188.140625 129.644531 187.457031 129.5625 C 186.851562 129.480469 186.625 128.820312 186.140625 128.9375 C 185.59375 129.039062 185.621094 128.9375 185.707031 129.675781 C 185.773438 130.421875 185.679688 130.683594 185.226562 130.363281 C 184.78125 130.050781 184.652344 130.640625 184.582031 129.867188 C 184.503906 129.109375 184.78125 129.429688 184.089844 128.597656 C 183.378906 127.78125 183.558594 127.519531 182.191406 127.164062 C 180.894531 126.832031 180.492188 126.621094 181.226562 127.574219 C 181.96875 128.554688 182.15625 128.832031 181.699219 128.679688 C 181.246094 128.542969 181.421875 128.335938 180.765625 128.25 C 180.164062 128.167969 180.183594 127.796875 179.6875 128.113281 C 179.191406 128.445312 179.675781 129.050781 178.828125 128.734375 C 177.984375 128.40625 177.125 128.542969 176.136719 128.335938 C 175.15625 128.15625 174.835938 128.855469 174.414062 128.375 C 174.0625 127.902344 174.898438 127.382812 173.832031 127.355469 C 172.746094 127.335938 172.378906 127.53125 172.582031 127.9375 C 172.769531 128.347656 172.769531 128.28125 173.402344 128.476562 C 174.027344 128.691406 173.550781 128.832031 173.164062 129.136719 C 172.726562 129.429688 172.648438 129 172.59375 129.6875 C 172.480469 130.351562 171.777344 129.769531 171.476562 130.007812 C 171.175781 130.25 171.769531 130.710938 171.144531 130.710938 C 170.523438 130.710938 170.742188 130.988281 170.210938 130.503906 C 169.660156 130.03125 170.066406 130.074219 169.339844 129.527344 C 168.597656 128.972656 168.546875 129.144531 167.976562 128.707031 C 167.453125 128.25 166.289062 128.222656 167.09375 128.15625 C 167.925781 128.085938 167.519531 128.316406 168.902344 128.554688 C 170.351562 128.789062 170.042969 129.023438 170.660156 128.554688 C 171.207031 128.085938 171.269531 128.15625 170.160156 127.78125 C 169.117188 127.421875 169.449219 127.808594 168.765625 127.3125 C 168 126.816406 168.226562 127.023438 167.335938 126.472656 C 166.425781 125.914062 166.609375 126.152344 165.269531 125.820312 C 163.898438 125.488281 164.308594 124.898438 163.394531 125.199219 C 162.5 125.519531 162.148438 125.652344 161.390625 126.023438 C 160.625 126.402344 159.410156 126.523438 159.207031 127.285156 C 158.898438 128.085938 159.019531 128.476562 157.5625 129.34375 C 156.078125 130.226562 155.785156 129.894531 155.59375 130.988281 C 155.378906 132.101562 155.027344 132.066406 155.5625 132.476562 C 156.167969 132.894531 155.164062 133.402344 156.277344 133.183594 C 157.460938 132.933594 157 132.019531 157.996094 132.574219 C 158.984375 133.140625 158.285156 132.964844 158.15625 133.765625 C 158.082031 134.566406 158.519531 134.300781 158.574219 134.953125 C 158.632812 135.601562 158.828125 135.476562 159.417969 135.632812 C 160.027344 135.796875 160.226562 135.714844 160.835938 135.214844 C 161.449219 134.722656 161.558594 134.757812 161.597656 134.179688 C 161.597656 133.582031 162.148438 133.195312 161.535156 132.535156 C 160.910156 131.925781 160.75 132.378906 160.722656 131.746094 C 160.757812 131.101562 161.015625 130.929688 161.363281 130.351562 C 161.691406 129.8125 161.941406 129.382812 162.964844 129.144531 C 163.980469 128.914062 163.972656 128.777344 163.339844 129.660156 C 162.734375 130.558594 162.589844 130.128906 162.808594 130.753906 C 163.027344 131.363281 163.03125 131.582031 163.765625 131.640625 C 164.539062 131.707031 164.917969 131.84375 165.644531 131.84375 C 166.40625 131.859375 167.828125 132.019531 167.132812 132.378906 C 166.425781 132.753906 166.304688 132.148438 165.386719 132.273438 C 164.472656 132.378906 163.898438 132.863281 164.472656 133.503906 C 165.09375 134.148438 165.324219 133.804688 165.246094 134.21875 C 165.144531 134.632812 165.066406 133.679688 164.429688 134.605469 C 163.867188 135.574219 164.371094 135.492188 163.929688 135.875 C 163.503906 136.253906 163.71875 136.335938 162.472656 136.511719 C 161.230469 136.703125 163.464844 137.0625 161.167969 137.117188 C 158.898438 137.160156 159.527344 137.601562 158.453125 137.21875 C 157.394531 136.84375 157.160156 137.398438 157.394531 136.816406 C 157.664062 136.253906 158.019531 136.816406 158.144531 136.390625 C 158.332031 135.976562 158.65625 136.027344 158.042969 135.546875 C 157.429688 135.078125 157.972656 135.433594 157.378906 134.816406 C 156.808594 134.191406 157.027344 134.425781 156.550781 134.523438 C 156.152344 134.632812 156.324219 134.964844 156.167969 135.476562 C 156.019531 136 155.972656 136.746094 155.898438 137.0625 C 155.808594 137.371094 155.632812 137.300781 154.675781 137.4375 C 153.703125 137.578125 153.761719 137.550781 153.035156 138.15625 C 152.324219 138.792969 152.652344 138.972656 151.589844 139.398438 C 150.527344 139.855469 150.378906 140.296875 150.101562 140.117188 C 149.859375 139.914062 149.605469 140.355469 149.304688 139.707031 C 148.949219 139.09375 148.265625 139.304688 148.546875 138.886719 C 148.769531 138.5 148.46875 138.847656 149.277344 138.640625 C 150.039062 138.460938 149.542969 138.035156 150.480469 138.0625 C 151.460938 138.0625 151.5625 137.378906 152.042969 137.160156 C 152.472656 136.984375 152.496094 136.910156 151.875 136.613281 C 151.277344 136.304688 151.449219 136.691406 150.953125 136.15625 C 150.445312 135.632812 150.148438 135.945312 150.265625 135.476562 C 150.339844 135.007812 150.089844 134.9375 150.21875 134.285156 C 150.367188 133.648438 150.058594 133.765625 150.265625 133.171875 C 150.445312 132.601562 150.824219 131.925781 150.21875 132.273438 C 149.617188 132.617188 149.910156 132.589844 149.027344 132.878906 C 148.171875 133.171875 148.667969 133.515625 147.914062 133.722656 C 147.199219 133.929688 147.695312 133.945312 148.039062 134.109375 C 148.390625 134.277344 148.242188 134.148438 148.3125 134.964844 C 148.421875 135.769531 148.292969 135.875 148.167969 136.011719 C 148.0625 136.164062 148 135.875 147.742188 136.554688 C 147.457031 137.277344 147.402344 137.714844 147.328125 137.945312 C 147.308594 138.1875 147.132812 138.15625 146.820312 138.105469 C 146.5 138.019531 146.03125 138.003906 146.140625 137.730469 C 146.25 137.464844 145.957031 137.4375 146.335938 137.117188 C 146.6875 136.800781 146.585938 136.746094 147.027344 136.511719 C 147.40625 136.304688 147.742188 136.554688 147.40625 136.15625 C 147.132812 135.75 147.359375 135.585938 146.929688 135.515625 C 146.535156 135.449219 146.515625 134.816406 146.046875 135.117188 C 145.625 135.421875 145.613281 135.09375 145.230469 135.503906 C 144.921875 135.890625 144.167969 135.992188 144.207031 136.613281 C 144.207031 137.246094 144.261719 137.246094 144.921875 137.496094 C 145.570312 137.757812 145.316406 137.449219 145.953125 137.945312 C 146.515625 138.488281 146.347656 138.210938 146.894531 138.429688 C 147.503906 138.640625 147.558594 138.5 147.558594 138.5 C 147.558594 138.5 148.421875 138.28125 148.375 138.707031 C 148.375 139.121094 148.339844 139.191406 148.195312 139.261719 C 148.078125 139.328125 147.621094 139.46875 147.382812 139.707031 C 147.152344 139.925781 147.050781 140.074219 146.992188 140.464844 C 146.953125 140.863281 146.6875 141.003906 147.328125 141.816406 C 148 142.605469 147.964844 142.300781 148.226562 143.019531 C 148.5 143.738281 148.546875 144.097656 148 144.46875 C 147.503906 144.816406 146.992188 145.269531 145.910156 145.171875 C 144.816406 145.101562 145.132812 144.914062 144.261719 145.285156 C 143.34375 145.703125 142.945312 146.296875 142.5625 147.289062 C 142.164062 148.277344 141.582031 148.820312 141.941406 149.59375 C 142.277344 150.371094 141.367188 150.875 143.160156 151.65625 C 145.015625 152.472656 143.890625 152.5 145.449219 151.863281 C 147.027344 151.222656 146.839844 151.640625 147.691406 150.894531 C 148.527344 150.148438 148.148438 150.300781 148.753906 149.390625 C 149.359375 148.4375 149.707031 148.875 150.480469 148.542969 C 151.257812 148.210938 150.523438 147.824219 151.109375 147.125 C 151.65625 146.414062 152.050781 145.882812 153.613281 145.203125 C 155.164062 144.5625 154.4375 144.320312 156.042969 144.640625 C 157.636719 144.984375 158.207031 144.722656 158.375 145.726562 C 158.546875 146.746094 158.695312 147.398438 159.238281 147.222656 C 159.738281 147.070312 160.003906 146.460938 160.082031 147.125 C 160.15625 147.785156 160.402344 148.210938 159.886719 148.4375 C 159.339844 148.660156 159 148.554688 159.480469 148.992188 C 160.003906 149.402344 159.765625 148.804688 159.367188 150.273438 C 159 151.71875 160.234375 151.554688 160.652344 150.855469 C 161.09375 150.148438 160.003906 149.253906 161.160156 149.027344 C 162.289062 148.796875 163.960938 148.699219 164.582031 149.277344 C 165.171875 149.855469 164.890625 149.980469 165.144531 150.519531 C 165.34375 151.015625 164.597656 152.222656 164.871094 152.59375 C 165.15625 152.980469 165.980469 153.15625 166.941406 152.8125 C 167.898438 152.472656 168.023438 152.882812 167.84375 152.121094 C 167.675781 151.363281 168.355469 152.019531 167.210938 150.875 C 166.089844 149.75 166.140625 149.820312 166.679688 149.15625 C 167.277344 148.476562 169.773438 148.804688 169.773438 149.402344 C 169.773438 150.023438 169.449219 149.882812 169.527344 150.957031 C 169.644531 152.042969 169.757812 152.019531 170.613281 152.71875 C 171.527344 153.421875 171.902344 152.648438 173.699219 153.089844 C 175.484375 153.546875 175.628906 152.949219 176.726562 153.453125 C 177.789062 153.949219 177.679688 153.867188 177.925781 154.941406 C 178.183594 156.03125 178.390625 157.316406 177.429688 157.964844 C 176.453125 158.628906 177.683594 159.207031 175.523438 158.933594 C 173.402344 158.699219 172.3125 159.265625 171.175781 158.4375 C 170.082031 157.621094 169.085938 157.828125 169.320312 157.015625 C 169.523438 156.203125 169.6875 155.574219 168.695312 155.5625 C 167.664062 155.5625 168.558594 155.996094 166.855469 155.996094 C 165.171875 156.019531 165.832031 156.078125 164.601562 156.753906 C 163.394531 157.457031 163.191406 157.484375 162.21875 157.082031 C 161.257812 156.695312 162.230469 156.445312 160.683594 156.089844 C 159.128906 155.742188 158.59375 156.597656 157.636719 155.675781 C 156.710938 154.746094 156.476562 154.890625 156.578125 154.140625 C 156.679688 153.394531 157.796875 153.394531 157.105469 152.773438 C 156.378906 152.140625 156.34375 152.027344 155.238281 152.289062 C 154.144531 152.578125 154.78125 152.9375 153.25 152.902344 C 151.667969 152.902344 151.992188 152.773438 150.523438 153.269531 C 149.097656 153.785156 149.542969 154.261719 147.566406 154.015625 C 145.613281 153.765625 145.484375 153.394531 144.671875 153.355469 Z M 184.035156 214.304688 C 184.035156 214.304688 185.28125 213.351562 185.84375 212.992188 C 186.421875 212.636719 186.75 211.683594 187.238281 211.960938 C 187.746094 212.222656 188.3125 212.191406 188.160156 212.84375 C 188 213.515625 188.589844 214.234375 187.957031 214.679688 C 187.347656 215.121094 186.550781 214.953125 186.378906 215.550781 C 186.214844 216.144531 186.363281 216.519531 186.671875 216.789062 C 186.957031 217.082031 187.238281 217.800781 186.773438 217.828125 C 186.339844 217.828125 186.089844 217.761719 186.035156 218.253906 C 185.957031 218.769531 185.746094 218.851562 185.746094 219.679688 C 185.746094 220.496094 185.894531 221.597656 185.59375 221.851562 C 185.269531 222.109375 184.921875 222.75 184.550781 222.898438 C 184.152344 223.078125 184.074219 224.292969 183.140625 224.085938 C 182.210938 223.835938 182.390625 224.042969 181.992188 223.382812 C 181.601562 222.71875 181.328125 222.566406 181.535156 222.140625 C 181.734375 221.75 181.261719 221.171875 182.039062 220.910156 C 182.863281 220.648438 182.921875 220.496094 182.941406 220.039062 C 182.96875 219.585938 182.777344 219.238281 183.164062 218.644531 C 183.585938 218.035156 183.753906 217.621094 183.691406 217.054688 C 183.664062 216.5 183.246094 216.722656 183.097656 216.007812 C 182.953125 215.273438 183.425781 214.445312 184.035156 214.304688 Z M 217.914062 187.117188 C 217.832031 187.320312 217.621094 187.257812 217.667969 187.558594 C 217.703125 187.8125 217.484375 187.546875 217.378906 187.957031 C 217.273438 188.300781 217.070312 188.15625 217.074219 188.84375 C 217.082031 189.535156 216.8125 189.730469 217.074219 190.199219 C 217.332031 190.613281 217.710938 191.097656 218.292969 190.902344 C 218.875 190.6875 218.90625 190.476562 218.933594 190.117188 C 218.949219 189.8125 219.230469 189.785156 218.898438 189.507812 C 218.585938 189.234375 218.523438 189.3125 218.5 188.859375 C 218.492188 188.441406 218.625 188.664062 218.386719 188.140625 C 218.144531 187.679688 218.253906 187.019531 217.914062 187.117188 Z M 230.609375 151.640625 C 230.609375 151.640625 230.5 151.210938 230.316406 150.976562 C 230.089844 150.683594 229.859375 150.476562 230.039062 150.21875 C 230.257812 149.996094 230.070312 149.773438 230.679688 150.441406 C 231.28125 151.097656 231.105469 151.195312 231.511719 151.820312 C 231.898438 152.429688 231.863281 152.441406 232.203125 152.59375 C 232.554688 152.742188 232.804688 153.105469 233.132812 153.785156 C 233.445312 154.445312 233.394531 154.457031 233.792969 154.675781 C 234.179688 154.902344 234.40625 155.757812 234.835938 156.0625 C 235.253906 156.363281 235.851562 157.484375 235.851562 157.484375 C 235.851562 157.484375 236.199219 158.464844 236.007812 158.296875 C 235.847656 158.21875 235.363281 157.390625 235.363281 157.859375 C 235.34375 158.257812 235.542969 158.496094 235.253906 158.21875 C 234.933594 157.871094 234.828125 157.691406 234.6875 157.179688 C 234.605469 156.738281 234.257812 156.335938 234.019531 155.867188 C 233.792969 155.414062 233.585938 155.011719 233.28125 154.59375 C 232.992188 154.234375 233.171875 154.570312 232.699219 153.820312 C 232.199219 153.007812 232.339844 153.355469 231.863281 152.859375 C 231.359375 152.316406 231.285156 152.09375 231.105469 152.191406 C 230.886719 152.222656 230.679688 151.835938 230.609375 151.640625 Z M 236.304688 158.675781 C 236.261719 159.003906 236.394531 158.933594 236.441406 159.320312 C 236.472656 159.722656 236.753906 159.765625 236.71875 160.246094 C 236.660156 160.757812 236.832031 161.242188 237.042969 161.40625 C 237.289062 161.628906 237.597656 162.304688 237.523438 161.78125 C 237.414062 161.203125 237.132812 160.980469 237.441406 160.9375 C 237.75 160.898438 237.589844 160.730469 237.625 160.398438 C 237.691406 160.125 237.730469 160.125 237.425781 159.898438 C 237.109375 159.640625 236.957031 159.277344 236.761719 159.207031 C 236.550781 159.046875 236.378906 158.464844 236.304688 158.675781 Z M 239.089844 166.753906 C 239.035156 166.917969 238.917969 166.878906 238.789062 166.988281 C 238.65625 167.101562 238.648438 166.933594 238.484375 167.15625 C 238.28125 167.28125 238.046875 167.101562 238.207031 167.527344 C 238.402344 167.996094 238.378906 167.710938 238.648438 167.859375 C 238.917969 168.023438 238.859375 167.972656 238.8125 168.355469 C 238.765625 168.742188 238.683594 168.398438 238.558594 168.882812 C 238.457031 169.421875 238.003906 169.242188 238.378906 169.667969 C 238.75 170.109375 238.738281 169.652344 238.917969 170 C 239.082031 170.332031 238.8125 170.320312 239.167969 170.539062 C 239.476562 170.703125 239.511719 170.320312 239.386719 169.738281 C 239.265625 169.160156 238.8125 168.132812 239.0625 168.371094 C 239.335938 168.691406 239.035156 168.757812 239.371094 168.90625 C 239.714844 169.113281 239.59375 168.839844 239.875 168.769531 C 240.15625 168.78125 240.1875 168.851562 240.277344 168.289062 C 240.289062 168.144531 240.304688 168.050781 240.320312 167.984375 C 240.210938 167.558594 240.089844 167.125 239.980469 166.710938 C 239.648438 165.894531 239.613281 165.921875 239.371094 165.109375 C 239.082031 164.1875 239.3125 164.667969 239.003906 163.980469 C 238.683594 163.289062 238.691406 163.121094 238.457031 162.957031 C 238.230469 162.804688 238.046875 162.554688 238.378906 163.546875 C 238.664062 164.464844 238.878906 164.628906 238.929688 165.097656 C 238.964844 165.539062 239.304688 166.464844 239.089844 166.753906 Z M 234.726562 196.773438 C 235.050781 197.175781 234.707031 198.085938 235.253906 197.476562 C 235.773438 196.871094 235.140625 197.050781 235.886719 196.179688 C 236.585938 195.347656 236.699219 194.964844 237.003906 194.578125 C 237.292969 194.191406 237.3125 195.101562 237.703125 194.078125 C 238.0625 193.183594 238.027344 192.835938 238.460938 193.089844 C 238.890625 193.265625 239.234375 193.582031 239.003906 194 C 238.757812 194.46875 238.867188 194.992188 238.609375 195.101562 C 238.324219 195.21875 238.484375 196.332031 238.238281 196.582031 C 238.003906 196.761719 237.949219 197.121094 238.0625 197.21875 C 238.179688 197.230469 238.460938 197.644531 238.476562 197.992188 C 238.476562 198.359375 238.230469 197.890625 237.964844 199.152344 C 237.691406 200.421875 237.679688 200.269531 237.230469 201.417969 C 236.792969 202.480469 236.957031 202.878906 236.585938 202.730469 C 236.199219 202.582031 236.484375 202.066406 235.765625 202.019531 C 235.035156 202.011719 235.285156 202.285156 234.902344 201.832031 C 234.511719 201.386719 234.863281 200.917969 234.582031 200.351562 C 234.269531 199.882812 233.957031 199.605469 234.074219 198.738281 C 234.179688 197.867188 233.929688 198.015625 234.726562 196.773438 Z M 238.078125 200.339844 C 238.511719 199.605469 238.0625 199.316406 238.8125 198.863281 C 239.511719 198.460938 239.121094 198.234375 239.59375 198.253906 C 240.054688 198.167969 240.234375 197.382812 240.453125 197.644531 C 240.683594 197.824219 240.886719 198.015625 240.304688 198.820312 C 239.714844 199.605469 239.921875 198.222656 239.472656 198.820312 C 239.019531 199.347656 238.796875 199.964844 239.136719 199.8125 C 239.449219 199.632812 239.773438 199.164062 239.773438 199.703125 C 239.78125 200.214844 239.84375 200.613281 239.496094 200.765625 C 239.140625 200.9375 239.082031 200.753906 239.121094 201.140625 C 239.15625 201.59375 239.511719 200.9375 239.417969 201.804688 C 239.335938 202.6875 239.386719 202.785156 239.1875 202.949219 C 238.960938 203.210938 239.019531 202.835938 238.796875 202.121094 C 238.558594 201.320312 238.378906 201.207031 238.335938 201.941406 C 238.3125 202.605469 238.378906 202.757812 238.148438 203.546875 C 237.941406 204.316406 238.054688 204.277344 237.75 204.277344 C 237.472656 204.191406 237.132812 204.042969 237.398438 203.734375 C 237.648438 203.421875 237.664062 203.5 237.769531 203.003906 C 237.871094 202.441406 237.972656 202.382812 237.898438 201.777344 C 237.8125 201.179688 237.496094 201.25 237.828125 200.726562 C 238.148438 200.285156 237.796875 200.351562 238.078125 200.339844 Z M 241.839844 196.554688 C 241.800781 196.320312 241.742188 196.082031 241.5 196.597656 C 241.277344 197.082031 241.429688 196.582031 241.261719 197.535156 C 241.0625 198.570312 241.351562 198.222656 241.21875 198.648438 C 241.0625 199.164062 240.859375 199.660156 241.070312 199.464844 C 241.285156 199.289062 241.1875 199.347656 241.355469 198.832031 C 241.550781 198.265625 241.355469 197.617188 241.550781 197.355469 C 241.703125 197.148438 241.800781 197.394531 241.824219 197.011719 C 241.855469 196.554688 241.839844 196.554688 241.839844 196.554688 Z M 239.316406 209.625 L 239.316406 209.566406 C 239.347656 209.195312 239.304688 208.65625 239.539062 208.902344 C 239.472656 209.152344 239.386719 209.386719 239.316406 209.625 Z M 231.746094 226.367188 C 231.828125 226.1875 231.859375 226.0625 231.800781 226.007812 C 231.6875 225.84375 231.96875 225.125 231.140625 225.9375 C 230.25 226.792969 230.070312 226.585938 229.511719 226.949219 C 228.898438 227.332031 228.738281 227.234375 228.214844 227.757812 C 227.679688 228.300781 227.6875 228.050781 226.890625 228.730469 C 226.089844 229.390625 225.199219 230.179688 225.199219 230.179688 C 225.199219 230.179688 223.527344 231.257812 224.039062 230.027344 C 224.570312 228.730469 224.773438 229.40625 225.726562 228.066406 C 226.625 226.792969 226.644531 226.792969 227.0625 225.9375 C 227.441406 225.179688 227.742188 222.9375 230.070312 220.277344 C 232.222656 217.609375 232.144531 218.6875 233.03125 217.898438 C 233.867188 217.167969 234.238281 216.765625 234.707031 215.9375 C 235.167969 215.09375 235.105469 214.113281 235.523438 213.824219 C 235.953125 213.515625 235.597656 214.71875 236.042969 214.019531 C 236.453125 213.308594 236.382812 213.28125 236.878906 212.824219 C 237.398438 212.304688 237.617188 212.550781 237.71875 212.507812 C 237.847656 212.398438 237.625 213.28125 237.9375 212.65625 C 238.238281 212.054688 238.148438 211.546875 238.867188 210.839844 L 238.960938 210.742188 C 237.136719 216.253906 234.707031 221.507812 231.746094 226.367188 Z M 240.304688 186.085938 C 240.277344 186.09375 240.246094 186.109375 240.222656 186.136719 C 240.234375 186.085938 240.265625 186.039062 240.304688 186.085938 Z M 240.054688 186.535156 C 240.140625 186.535156 240.5 186.4375 240.539062 186.96875 C 240.589844 187.476562 240.707031 187.679688 240.746094 187.984375 C 240.785156 188.292969 240.839844 188.363281 240.832031 188.9375 C 240.808594 189.601562 240.476562 189.535156 240.515625 189.894531 C 240.566406 190.183594 240.65625 189.753906 240.746094 190.199219 C 240.820312 190.640625 240.796875 190.722656 240.644531 190.847656 C 240.5 191.066406 240.304688 190.902344 240.222656 191.550781 C 240.140625 192.214844 240.070312 192.144531 240.222656 192.351562 C 240.378906 192.519531 240.234375 192.960938 240.453125 192.835938 C 240.683594 192.699219 240.53125 193.183594 240.785156 193.070312 C 241.027344 192.949219 241.277344 192.824219 241.25 192.449219 C 241.21875 192.074219 241.398438 191.425781 241.328125 190.957031 C 241.265625 190.597656 241.238281 190.664062 241.191406 190.367188 C 241.148438 190.140625 241.117188 190.582031 241.296875 189.785156 C 241.496094 189.054688 241.5625 189.203125 241.441406 188.664062 C 241.328125 188.085938 241.292969 188.371094 241.296875 187.933594 C 241.296875 187.476562 241.285156 187.546875 241.21875 187.320312 C 241.148438 187.117188 241.277344 187.050781 241.085938 186.898438 C 240.890625 186.742188 240.925781 186.8125 240.796875 186.671875 C 240.644531 186.59375 240.613281 186.304688 240.613281 186.304688 C 240.613281 186.304688 240.589844 186.257812 240.554688 186.21875 C 240.601562 186 240.589844 185.667969 240.476562 185.433594 C 240.265625 184.992188 240.183594 184.773438 240.050781 185.070312 C 239.902344 185.359375 239.757812 185.296875 239.699219 185.070312 C 239.648438 184.867188 239.519531 184.589844 239.671875 184.4375 C 239.804688 184.21875 239.902344 183.921875 239.859375 183.554688 C 239.804688 183.125 239.792969 183.265625 239.78125 182.820312 C 239.773438 182.320312 239.921875 181.730469 239.417969 181.621094 C 239.417969 181.621094 239.136719 181.988281 239.136719 182.863281 C 239.136719 183.792969 238.796875 183.097656 238.636719 183.609375 C 238.460938 184.035156 238.335938 184.3125 238.558594 184.613281 C 238.796875 184.945312 238.757812 185.449219 238.9375 185.679688 C 239.097656 185.957031 239.1875 185.378906 239.441406 185.449219 C 239.6875 185.585938 239.921875 185.433594 239.746094 185.875 C 239.554688 186.304688 239.1875 186.234375 239.171875 186.59375 C 239.15625 186.953125 239.363281 186.742188 239.421875 186.953125 C 239.511719 187.101562 239.554688 187.753906 239.746094 187.546875 C 239.9375 187.320312 239.953125 187.175781 239.953125 186.898438 C 239.953125 186.671875 240.023438 186.179688 240.101562 186.355469 C 240.089844 186.414062 240.070312 186.464844 240.054688 186.535156 Z M 240.1875 187.617188 C 240.160156 187.765625 240.210938 187.984375 240.070312 188.042969 C 239.921875 188.113281 239.972656 188.414062 239.804688 188.554688 C 239.644531 188.695312 239.78125 189.054688 239.773438 189.285156 C 239.773438 189.507812 239.875 189.867188 239.949219 189.867188 C 240.023438 189.867188 240.101562 189.8125 240.234375 189.519531 C 240.363281 189.234375 240.382812 189.351562 240.371094 189.007812 C 240.371094 188.636719 240.382812 188.636719 240.371094 188.347656 C 240.363281 188.054688 240.304688 188.113281 240.289062 187.984375 C 240.277344 187.765625 240.320312 187.476562 240.1875 187.617188 Z M 239.136719 187.742188 C 239.296875 187.753906 239.257812 188.042969 239.335938 188.25 C 239.421875 188.40625 239.476562 188.695312 239.335938 189.054688 C 239.1875 189.410156 239.21875 189.753906 239.089844 189.824219 C 238.992188 189.90625 238.878906 190.03125 238.84375 190.320312 C 238.8125 190.597656 238.832031 191.46875 238.710938 191.734375 C 238.589844 191.953125 238.433594 192.144531 238.332031 192.074219 C 238.230469 191.996094 238.121094 191.769531 238.132812 191.632812 C 238.148438 191.480469 238.253906 190.5 238.460938 190.515625 C 238.683594 190.445312 238.507812 189.730469 238.710938 189.386719 C 238.882812 189.039062 238.738281 189.164062 238.917969 188.820312 C 239.089844 188.523438 238.757812 188.097656 239.136719 187.742188 Z M 229.558594 197.328125 C 229.46875 197.394531 229.101562 197.839844 228.777344 197.082031 C 228.445312 196.332031 228.574219 196.472656 228.046875 195.960938 C 227.535156 195.378906 227.433594 195.253906 227.3125 194.796875 C 227.226562 194.371094 227.113281 194.164062 227.535156 193.789062 C 227.949219 193.472656 228.277344 193.40625 228.625 194.421875 C 228.960938 195.40625 229.132812 195.492188 229.339844 195.78125 C 229.566406 196 229.402344 196.804688 229.773438 196.996094 C 230.125 197.175781 230.242188 197.714844 230.648438 197.921875 C 231.070312 198.128906 231.410156 197.714844 231.609375 198.542969 C 231.78125 199.386719 231.253906 199.882812 231.449219 200.324219 C 231.652344 200.777344 231.292969 200.820312 231.78125 201.003906 C 232.261719 201.25 231.332031 202.855469 231.664062 203.144531 C 231.992188 203.378906 232.21875 203.433594 231.859375 203.625 C 231.488281 203.804688 231.773438 204.070312 231.179688 204.042969 C 230.578125 204.027344 230.546875 203.945312 230.425781 203.238281 C 230.332031 202.535156 230.164062 202.835938 229.976562 201.789062 C 229.796875 200.699219 229.53125 201.417969 229.621094 200.132812 C 229.714844 198.789062 229.585938 198.5 229.585938 198.117188 C 229.585938 197.667969 229.796875 197.382812 229.558594 197.328125 Z M 232.003906 200.917969 C 232.144531 200.875 232.261719 201.03125 232.453125 200.476562 C 232.648438 199.898438 232.648438 200.105469 232.820312 200.199219 C 232.984375 200.382812 233.09375 200.269531 233.164062 200.765625 C 233.238281 201.25 233.203125 201.25 233.085938 201.566406 C 232.984375 201.832031 232.96875 202.089844 232.664062 201.96875 C 232.367188 201.746094 232.339844 201.328125 232.171875 201.292969 C 232.003906 201.191406 231.800781 200.875 232.003906 200.917969 Z M 233.871094 201.386719 C 233.851562 201.386719 233.738281 201.636719 233.617188 201.695312 C 233.46875 201.652344 233.1875 201.445312 233.324219 201.902344 C 233.429688 202.410156 233.148438 202.632812 233.441406 202.546875 C 233.738281 202.480469 233.8125 202.296875 233.8125 202.296875 C 233.8125 202.296875 234.105469 201.722656 233.871094 201.386719 Z M 234.886719 206.679688 C 234.570312 206.652344 234.472656 206.832031 234.222656 206.472656 C 233.972656 206.097656 234.359375 206 233.722656 205.667969 C 233.054688 205.273438 233.238281 205.390625 232.898438 204.9375 C 232.554688 204.496094 232.5 203.640625 231.898438 204.527344 C 231.28125 205.390625 231.027344 205.050781 231.511719 205.863281 C 231.96875 206.652344 232.203125 206.363281 232.835938 206.761719 C 233.429688 207.175781 233.050781 207.992188 233.703125 207.839844 C 234.304688 207.746094 234.933594 207.710938 234.886719 206.679688 Z M 235.371094 207.34375 C 235.519531 207.164062 235.796875 206.503906 236.054688 206.640625 C 236.304688 206.777344 236.832031 206.863281 236.410156 207.191406 C 235.980469 207.519531 235.90625 207.796875 235.765625 207.976562 C 235.617188 208.15625 235.183594 208.023438 235.371094 207.34375 Z M 237.472656 206.445312 C 237.378906 206.503906 237.289062 206.402344 237.015625 206.863281 C 236.730469 207.359375 236.6875 207.136719 236.6875 207.4375 C 236.6875 207.726562 236.660156 208.183594 236.878906 207.949219 C 237.070312 207.6875 237.230469 207.675781 237.351562 207.242188 C 237.476562 206.832031 237.828125 206.171875 237.472656 206.445312 Z M 238.867188 206.304688 C 238.996094 206.402344 238.917969 206.625 238.488281 207.125 C 238.078125 207.550781 238.300781 207.289062 238.054688 207.21875 C 237.820312 207.078125 237.804688 207.300781 237.75 206.984375 C 237.71875 206.667969 237.859375 206.804688 238.105469 206.402344 C 238.335938 206 238.378906 206.238281 238.589844 206.074219 C 238.8125 205.910156 238.710938 206.25 238.867188 206.304688 Z M 239.472656 206.695312 C 239.304688 207.039062 239.0625 207.136719 238.878906 207.300781 C 238.664062 207.550781 238.429688 207.796875 238.378906 207.949219 C 238.3125 208.140625 238.109375 208.558594 238.253906 208.597656 C 238.429688 208.574219 238.378906 208.40625 238.550781 208.449219 C 238.714844 208.417969 238.683594 208.738281 238.882812 208.335938 C 239.109375 207.921875 239.0625 207.910156 239.199219 207.863281 C 239.347656 207.757812 239.421875 207.632812 239.40625 207.46875 C 239.417969 207.230469 239.265625 207.425781 239.421875 207.078125 C 239.5625 206.804688 239.511719 206.703125 239.472656 206.695312 Z M 181.351562 125.488281 C 181.714844 125.488281 182.023438 125.613281 182.035156 125.792969 C 182.035156 125.984375 181.714844 126.152344 181.328125 126.152344 C 180.921875 126.179688 180.609375 126.042969 180.59375 125.851562 C 180.59375 125.664062 180.882812 125.519531 181.261719 125.488281 C 181.28125 125.488281 181.289062 125.488281 181.300781 125.488281 C 181.328125 125.488281 181.332031 125.488281 181.351562 125.488281 Z M 176.292969 127.164062 C 176.667969 127.164062 176.972656 127.285156 176.972656 127.464844 C 176.972656 127.660156 176.667969 127.824219 176.277344 127.835938 C 175.886719 127.835938 175.558594 127.695312 175.558594 127.519531 C 175.546875 127.335938 175.839844 127.175781 176.210938 127.164062 C 176.234375 127.164062 176.242188 127.164062 176.257812 127.164062 C 176.265625 127.164062 176.28125 127.164062 176.292969 127.164062 Z M 113.546875 133.347656 C 114.324219 133.195312 114.984375 132.644531 115.316406 132.476562 C 115.667969 132.300781 117.71875 131.554688 117.71875 131.554688 C 117.71875 131.554688 118.035156 131.25 118.265625 131.042969 C 118.492188 130.863281 118.589844 130.753906 118.933594 130.476562 C 119.285156 130.199219 120.433594 129.382812 120.476562 129.644531 C 120.527344 129.949219 119.867188 130.515625 119.53125 130.710938 C 119.203125 130.890625 118.945312 131.265625 119.304688 131.136719 C 119.734375 130.945312 120.496094 130.585938 120.851562 130.558594 C 121.261719 130.503906 120.972656 130.601562 120.421875 131.070312 C 119.867188 131.554688 119.203125 131.664062 118.730469 132.121094 C 118.191406 132.632812 118.117188 132.644531 117.632812 132.769531 C 117.101562 132.964844 116.839844 132.671875 116.394531 132.851562 C 116.011719 132.988281 115.191406 133.320312 115.488281 133.390625 C 115.769531 133.503906 116.503906 133.183594 116.628906 133.414062 C 116.753906 133.667969 116.785156 133.679688 116.21875 133.945312 C 115.667969 134.234375 115.988281 134.023438 115.609375 133.945312 C 115.226562 133.886719 114.605469 133.984375 113.992188 134.4375 C 113.398438 134.894531 110.683594 137.589844 109.753906 138.378906 C 108.878906 139.121094 109.179688 140.242188 109.574219 140.074219 C 109.976562 139.925781 110.515625 139.398438 110.621094 139.707031 C 110.8125 139.9375 110.316406 140.480469 110.96875 140.0625 C 111.660156 139.59375 111.417969 139.671875 112.210938 139.015625 C 113.050781 138.296875 112.855469 138.417969 113.578125 137.589844 C 114.296875 136.792969 114.296875 136.554688 114.800781 136.253906 C 115.335938 135.945312 115.761719 135.5625 116.210938 135.09375 C 116.660156 134.605469 117.136719 134.179688 117.808594 134.023438 C 118.539062 133.875 118.730469 133.972656 118.492188 134.632812 C 118.242188 135.320312 117.773438 135.75 118.289062 135.671875 C 118.871094 135.574219 118.644531 135.320312 119.117188 134.691406 C 119.59375 134.054688 119.59375 133.945312 119.964844 133.816406 C 120.375 133.648438 120.050781 134.757812 119.734375 135.253906 C 119.355469 135.78125 119.347656 136.164062 119.539062 136.277344 C 119.691406 136.429688 119.90625 136.757812 119.339844 137.355469 C 118.722656 138.003906 117.738281 137.90625 118.035156 138.28125 C 118.316406 138.683594 119.003906 138.28125 118.796875 138.75 C 118.550781 139.292969 118.1875 139.59375 117.457031 140.003906 C 116.707031 140.453125 115.226562 141.347656 114.6875 141.238281 C 114.199219 141.101562 114.019531 141.054688 113.824219 141.054688 C 113.578125 141.128906 113 141.101562 112.867188 141.363281 C 112.675781 141.683594 111.804688 142.855469 111.347656 143.410156 C 110.84375 144.011719 108.792969 145.066406 108.566406 145.34375 C 108.335938 145.621094 108.085938 145.890625 108.59375 145.714844 C 109.15625 145.492188 108.839844 146.226562 109.375 146.003906 C 109.929688 145.78125 107.964844 147.195312 107.554688 147.757812 C 107.183594 148.277344 107.023438 148.863281 106.664062 148.992188 C 106.347656 149.042969 106.039062 148.933594 105.449219 149.761719 C 104.835938 150.644531 104.140625 152.019531 103.523438 152.8125 C 102.945312 153.5625 102.464844 153.726562 102.195312 154.582031 C 101.882812 155.453125 101.855469 155.617188 101.609375 155.660156 C 101.375 155.699219 100.839844 156.667969 100.242188 156.640625 C 99.675781 156.640625 98.980469 157.789062 98.554688 158.496094 C 98.113281 159.207031 97.84375 160.457031 97.59375 161.460938 C 97.371094 162.484375 97.179688 162.417969 97.121094 162.554688 C 97.0625 162.691406 96.910156 163.105469 96.785156 163.234375 C 96.703125 163.289062 96.496094 163.4375 96.410156 163.59375 C 96.347656 163.632812 96.191406 163.59375 96.324219 163.234375 C 96.421875 162.957031 96.289062 163.050781 96.4375 162.648438 C 96.578125 162.304688 96.410156 162.625 96.714844 162.097656 C 97.007812 161.574219 96.863281 161.851562 97.042969 161.417969 C 97.214844 161.003906 97.472656 160.066406 97.335938 160.027344 C 97.238281 159.898438 96.886719 160.09375 96.742188 160.125 C 96.597656 160.136719 96.578125 159.804688 96.578125 159.804688 C 96.578125 159.804688 96.367188 159.75 96.21875 159.988281 C 100.070312 149.882812 106.019531 140.835938 113.546875 133.347656 " fill-opacity="1" fill-rule="nonzero"/><g clip-path="url(#id2)"><path fill="#cd1212" d="M 112.992188 171.855469 C 114.101562 170.601562 114.976562 169.492188 115.972656 168.507812 C 119.300781 165.238281 122.519531 161.835938 126.082031 158.835938 C 129.929688 155.597656 135.453125 156.472656 138.996094 160.222656 C 139.882812 161.152344 141.441406 161.445312 142.839844 162.09375 C 143.445312 163.59375 142.011719 164.253906 141.125 165.09375 C 133.089844 172.71875 126.84375 181.71875 121.429688 191.269531 C 119.359375 194.921875 117.96875 198.972656 116.398438 202.894531 C 115.164062 205.972656 115.007812 206.410156 111.644531 206.140625 C 105.648438 205.660156 100.425781 203.621094 96.648438 198.46875 C 90.070312 189.523438 82.972656 180.949219 78.042969 170.90625 C 77.246094 169.269531 76.652344 167.535156 75.554688 164.847656 C 80.472656 165.730469 84.519531 165.699219 87.121094 169.605469 C 88.710938 172.003906 90.335938 174.363281 92.535156 177.632812 C 93.09375 174.195312 93.441406 171.824219 93.867188 169.472656 C 97.085938 151.746094 104.226562 135.757812 117.621094 123.578125 C 129.804688 112.480469 144.117188 104.8125 161.28125 104.597656 C 175.695312 104.429688 188.070312 110.074219 198.886719 119.144531 C 203.210938 122.78125 206.878906 127.226562 210.722656 131.414062 C 211.71875 132.5 212.269531 133.980469 213.019531 135.289062 C 212.730469 135.570312 212.4375 135.847656 212.144531 136.128906 C 210.375 135.03125 208.535156 134.023438 206.867188 132.792969 C 205.824219 132.019531 205.015625 130.921875 204.144531 129.9375 C 192.933594 117.273438 178.777344 113.890625 162.738281 117.339844 C 150.484375 119.972656 140.363281 126.566406 131.855469 135.601562 C 122.867188 145.128906 116.769531 156.347656 113.113281 168.910156 C 112.945312 169.472656 112.8125 170.042969 112.722656 170.613281 C 112.699219 170.871094 112.835938 171.152344 112.992188 171.855469 Z M 112.992188 171.855469 " fill-opacity="1" fill-rule="nonzero"/></g><g clip-path="url(#id3)"><path fill="#8ba427" d="M 220.027344 203.933594 C 218.886719 205.226562 217.992188 206.367188 216.964844 207.378906 C 213.546875 210.746094 210.242188 214.25 206.578125 217.339844 C 202.628906 220.667969 196.953125 219.769531 193.3125 215.910156 C 192.40625 214.953125 190.804688 214.652344 189.363281 213.984375 C 188.742188 212.441406 190.214844 211.761719 191.125 210.894531 C 199.382812 203.046875 205.796875 193.78125 211.359375 183.949219 C 213.488281 180.191406 214.914062 176.019531 216.527344 171.984375 C 217.792969 168.816406 217.957031 168.367188 221.410156 168.640625 C 227.570312 169.136719 232.9375 171.234375 236.816406 176.539062 C 243.578125 185.746094 250.867188 194.574219 255.933594 204.914062 C 256.75 206.597656 257.359375 208.382812 258.488281 211.148438 C 253.433594 210.238281 249.277344 210.273438 246.605469 206.25 C 244.96875 203.785156 243.300781 201.351562 241.042969 197.988281 C 240.46875 201.527344 240.109375 203.96875 239.671875 206.390625 C 236.367188 224.636719 229.035156 241.09375 215.273438 253.632812 C 202.757812 265.054688 188.050781 272.949219 170.421875 273.167969 C 155.613281 273.34375 142.902344 267.535156 131.789062 258.199219 C 127.34375 254.453125 123.578125 249.875 119.628906 245.566406 C 118.605469 244.449219 118.042969 242.925781 117.269531 241.578125 C 117.570312 241.289062 117.867188 241 118.167969 240.714844 C 119.988281 241.84375 121.875 242.878906 123.589844 244.148438 C 124.664062 244.941406 125.492188 246.074219 126.390625 247.085938 C 137.902344 260.121094 152.449219 263.601562 168.925781 260.054688 C 181.511719 257.34375 191.910156 250.554688 200.648438 241.253906 C 209.882812 231.445312 216.148438 219.898438 219.902344 206.964844 C 220.074219 206.390625 220.210938 205.800781 220.304688 205.214844 C 220.328125 204.949219 220.191406 204.660156 220.027344 203.933594 Z M 220.027344 203.933594 " fill-opacity="1" fill-rule="nonzero"/></g><g clip-path="url(#id4)"><path fill="#d9d9d9" d="M 226.691406 266.289062 C 225.574219 265.664062 225.277344 265.03125 225.714844 263.8125 C 226.335938 262.101562 227.039062 260.421875 227.730469 258.746094 C 229.582031 254.265625 231.679688 249.902344 233.925781 245.597656 C 234.132812 245.234375 234.15625 244.789062 233.980469 244.414062 C 231.886719 239.089844 229.800781 233.765625 227.71875 228.4375 C 227.542969 228.027344 227.394531 227.605469 227.28125 227.171875 C 227.074219 226.363281 227.464844 225.578125 228.167969 225.308594 C 228.871094 225.039062 229.605469 225.308594 230.007812 226.023438 C 230.136719 226.246094 230.214844 226.480469 230.332031 226.703125 C 232.449219 230.9375 234.050781 235.40625 235.800781 239.804688 C 235.917969 240.085938 236.042969 240.367188 236.191406 240.730469 C 236.355469 240.449219 236.46875 240.25 236.585938 240.039062 C 237.691406 237.902344 238.808594 235.769531 239.890625 233.609375 C 240.695312 232.015625 241.457031 230.386719 242.25 228.777344 C 242.367188 228.519531 242.503906 228.273438 242.652344 228.039062 C 243.054688 227.441406 243.839844 227.21875 244.484375 227.535156 C 245.164062 227.851562 245.484375 228.601562 245.265625 229.367188 C 245.210938 229.554688 245.152344 229.742188 245.070312 229.917969 C 243.679688 233.246094 242.296875 236.589844 240.535156 239.746094 C 239.660156 241.304688 238.945312 242.960938 238.140625 244.554688 C 237.964844 244.894531 237.898438 245.199219 238.046875 245.585938 C 239.773438 250.019531 241.480469 254.476562 243.195312 258.910156 C 243.4375 259.53125 243.746094 260.128906 244.011719 260.75 C 244.4375 261.738281 244.140625 262.710938 243.296875 263.132812 C 242.457031 263.554688 241.558594 263.25 241.050781 262.324219 C 240.695312 261.65625 240.375 260.972656 240.097656 260.269531 C 238.832031 256.976562 237.574219 253.679688 236.320312 250.371094 C 236.191406 250.03125 236.054688 249.691406 235.882812 249.269531 C 235.742188 249.457031 235.628906 249.667969 235.511719 249.867188 C 234.1875 252.707031 232.863281 255.554688 231.5625 258.40625 C 230.816406 260.035156 230.125 261.691406 229.410156 263.332031 C 229.261719 263.695312 229.078125 264.070312 229.042969 264.445312 C 228.972656 265.382812 228.453125 265.925781 227.660156 266.265625 Z M 226.691406 266.289062 " fill-opacity="1" fill-rule="nonzero"/></g><g clip-path="url(#id5)"><path fill="#d9d9d9" d="M 166.863281 104.152344 C 168.691406 101.457031 170.878906 99.753906 174.019531 99.734375 C 177.160156 99.714844 179.367188 101.175781 180.578125 104.234375 C 180.996094 103.714844 181.296875 103.335938 181.59375 102.972656 C 185.292969 98.597656 191.554688 99.214844 194.179688 104.332031 C 194.992188 105.953125 195.53125 107.691406 195.828125 109.492188 C 196.328125 112.449219 196.566406 115.46875 196.84375 118.488281 C 196.980469 120.128906 196.265625 121.207031 194.972656 121.6875 C 193.066406 122.367188 191.238281 121.046875 190.996094 118.789062 C 190.820312 116.988281 190.71875 115.148438 190.480469 113.351562 C 190.28125 111.789062 189.964844 110.230469 189.664062 108.691406 C 189.566406 108.273438 189.445312 107.871094 189.269531 107.472656 C 188.949219 106.671875 188.433594 106.011719 187.539062 105.933594 C 186.664062 105.851562 186.125 106.492188 185.75 107.171875 C 184.476562 109.371094 183.761719 111.851562 183.660156 114.410156 C 183.621094 115.371094 183.703125 116.328125 183.679688 117.289062 C 183.679688 117.949219 183.582031 118.628906 183.402344 119.269531 C 183.046875 120.46875 181.972656 121.285156 180.738281 121.308594 C 179.445312 121.347656 178.292969 120.507812 177.957031 119.246094 C 177.558594 117.828125 177.359375 116.347656 177.082031 114.890625 C 176.683594 112.851562 176.324219 110.832031 175.925781 108.832031 C 175.769531 108.132812 175.570312 107.433594 175.3125 106.773438 C 174.8125 105.453125 173.820312 105.171875 172.804688 106.132812 C 172.269531 106.671875 171.832031 107.3125 171.515625 107.992188 C 169.84375 111.210938 169.207031 114.667969 169.007812 118.226562 C 169.007812 118.949219 168.890625 119.648438 168.691406 120.347656 C 168.195312 121.808594 166.863281 122.667969 165.507812 122.546875 C 164.15625 122.425781 163.144531 121.488281 162.886719 119.90625 C 162.488281 117.507812 162.109375 115.089844 161.890625 112.652344 C 161.554688 108.832031 161.355469 105.011719 161.117188 101.195312 C 161.054688 100.355469 161.214844 99.574219 161.792969 98.917969 C 162.449219 98.15625 163.28125 97.917969 164.257812 98.097656 C 165.230469 98.238281 166.027344 98.996094 166.207031 99.957031 C 166.445312 101.035156 166.542969 102.136719 166.722656 103.214844 C 166.722656 103.433594 166.761719 103.652344 166.863281 104.152344 Z M 166.863281 104.152344 " fill-opacity="1" fill-rule="nonzero"/></g><g clip-path="url(#id6)"><path fill="#d9d9d9" d="M 148.03125 101.847656 C 148.03125 100.738281 148.03125 99.917969 148.03125 99.113281 C 148.050781 98.113281 148.429688 97.308594 149.277344 96.777344 C 150.597656 95.925781 152.429688 96.792969 152.367188 98.371094 C 152.238281 101.769531 153.050781 105.019531 153.53125 108.335938 C 153.800781 110.171875 153.945312 112.007812 154.132812 113.859375 C 154.34375 115.804688 154.566406 117.769531 154.773438 119.71875 C 154.820312 120.105469 154.851562 120.492188 154.851562 120.859375 C 154.835938 121.941406 154.070312 122.875 153.003906 123.050781 C 151.886719 123.277344 150.820312 122.730469 150.4375 121.617188 C 150.230469 120.988281 150.105469 120.347656 150.054688 119.703125 C 149.738281 116.707031 149.46875 113.714844 149.148438 110.734375 C 149.035156 109.671875 148.8125 108.609375 148.6875 107.53125 C 148.445312 105.535156 148.222656 103.539062 148.03125 101.847656 Z M 146.710938 82.578125 C 147.652344 83.269531 148.8125 83.222656 149.785156 82.511719 C 150.757812 81.804688 151.15625 80.726562 150.835938 79.582031 C 150.726562 79.148438 150.644531 78.699219 150.613281 78.246094 C 150.519531 77.105469 149.707031 76.15625 148.605469 75.863281 C 147.585938 75.589844 146.503906 75.960938 145.867188 76.796875 C 145.324219 77.492188 145.132812 78.3125 145.101562 79.277344 C 145.179688 80.535156 145.578125 81.742188 146.710938 82.578125 Z M 146.710938 82.578125 " fill-opacity="1" fill-rule="nonzero"/></g><g clip-path="url(#id7)"><path fill="#d9d9d9" d="M 203.171875 247.042969 C 203.105469 246.519531 203.042969 246.0625 203.011719 245.601562 C 202.609375 240.414062 203.332031 235.5 206.5625 231.246094 C 208.203125 229.101562 210.421875 228.054688 213.027344 227.824219 C 214.894531 227.660156 216.53125 228.25 217.964844 229.410156 C 219.234375 230.441406 220.3125 231.703125 221.132812 233.128906 C 223.078125 236.582031 224.28125 240.265625 224.25 244.292969 C 224.25 244.570312 224.234375 244.847656 224.21875 245.113281 C 224.058594 246.914062 222.980469 248.105469 221.261719 248.582031 C 218.125 249.417969 214.910156 249.808594 211.707031 250.21875 C 210.792969 250.332031 209.90625 250.515625 208.960938 250.675781 C 209.585938 253.3125 210.710938 255.539062 212.65625 257.257812 C 213.363281 257.882812 214.121094 258.40625 215.070312 258.570312 C 216.148438 258.765625 217.09375 258.632812 217.949219 257.816406 C 219.007812 256.800781 220.328125 256.800781 221.261719 257.71875 C 222.191406 258.632812 222.207031 259.992188 221.292969 261.105469 C 220.117188 262.546875 218.542969 263.203125 216.757812 263.382812 C 213.832031 263.660156 211.402344 262.578125 209.28125 260.597656 C 207.207031 258.648438 205.664062 256.179688 204.828125 253.429688 C 204.632812 252.824219 204.410156 252.183594 204.167969 251.414062 C 203.703125 251.464844 203.21875 251.511719 202.753906 251.578125 C 201.949219 251.691406 201.210938 251.609375 200.597656 251.003906 C 199.554688 249.957031 199.890625 248.222656 201.273438 247.601562 C 201.820312 247.355469 202.445312 247.257812 203.171875 247.042969 Z M 207.816406 246.144531 C 211.757812 245.0625 215.746094 245.273438 219.585938 243.980469 C 219.507812 243.195312 219.460938 242.460938 219.332031 241.738281 C 218.785156 238.859375 217.804688 236.140625 215.839844 233.914062 C 214.265625 232.128906 212.144531 232.128906 210.519531 233.898438 C 210.308594 234.125 210.117188 234.371094 209.957031 234.632812 C 207.625 238.070312 207.398438 241.917969 207.816406 246.144531 Z M 207.816406 246.144531 " fill-opacity="1" fill-rule="nonzero"/></g></svg>